<?xml version="1.0" encoding="utf-8"?>
<!-- Generator: Adobe Illustrator 25.4.1, SVG Export Plug-In . SVG Version: 6.00 Build 0)  -->
<svg version="1.1" id="Layer_1" xmlns="http://www.w3.org/2000/svg" xmlns:xlink="http://www.w3.org/1999/xlink" x="0px" y="0px"
	 viewBox="0 0 560 560" style="enable-background:new 0 0 560 560;" xml:space="preserve">
<style type="text/css">
	.st0{fill:#FFFFFF;}
</style>
<g>
	<path class="st0" d="M68,112.6l-3-2.3l-2.3,3l-3-2.3l-6.9,8.9l3,2.3l-2.3,3l3,2.3l-2.3,3L69,141.9l4.6-5.9l-5.9-4.6l6.9-8.9
		l5.9,4.6l4.6-5.9l-14.8-11.5L68,112.6z M64.7,129.1l-5.9-4.6l2.3-3l-3-2.3l2.3-3l3,2.3l2.3-3l5.9,4.6L64.7,129.1z M82,86.4l8,7.9
		L87.3,97l-2.7-2.6L82,97l-2.7-2.6l-2.6,2.7L74,94.5l-5.3,5.3l18.7,18.5l5.3-5.3l-8-7.9l2.6-2.7L90,105l2.6-2.7l2.7,2.6l2.6-2.7
		l2.7,2.6l5.3-5.3L87.2,81.1L82,86.4z M116.2,76.4l-2.4-2.9l2.9-2.4l-7.1-8.8l-5.8,4.7l7.1,8.8l-5.9,4.8l-7-8.8l-5.8,4.7l7.1,8.8
		l2.9-2.4l2.4,2.9l2.9-2.4l7.1,8.8l5.8-4.7l-7.1-8.8L116.2,76.4z M139,47.2l-3.2,2l-2-3.2l-15.7,10.2l2,3.2l-3.2,2L127,77.2l3.2-2
		l2,3.2L148,68.2l-2-3.2l3.2-2L139,47.2z M133.3,73.1l-10.1-15.8l9.5-6.1L142.8,67L133.3,73.1z M159.8,32.4l4.9,10.1l-3.4,1.6
		l-1.6-3.4l-3.4,1.6l-1.6-3.4l-3.4,1.6l-1.6-3.4l-6.8,3.3L154.3,64l6.8-3.3l-4.9-10.1l3.4-1.6l1.6,3.4l3.4-1.6l1.6,3.4l3.4-1.6
		l1.6,3.4l6.8-3.3l-11.4-23.6L159.8,32.4z M187.2,45.2l-2.5-7.1l14.1-5l-1.3-3.5l-14.1,5l-2.5-7.1l14.1-5l-1.3-3.5l-21.2,7.5
		l8.8,24.8l21.2-7.5l-1.3-3.5L187.2,45.2z M260.9,25.2l-7.5,0.8l0.4,3.7l-7.5,0.8l-0.4-3.7l-3.7,0.4L241.1,16l3.7-0.4l-0.4-3.7
		l7.5-0.8l0.4,3.7l7.5-0.8l-0.4-3.7l-3.7,0.4L255.3,7l-14.9,1.6l0.4,3.7l-3.7,0.4l0.4,3.7l-3.7,0.4L235,28l3.7-0.4l0.4,3.7l3.7-0.4
		l0.4,3.7L258,33l-0.4-3.7l3.7-0.4L260.9,25.2z M288.2,10h-3.8V6.2l-11.3-0.1v3.8h-3.8v3.8h-3.8l-0.2,18.8l7.5,0.1l0.1-7.5l11.3,0.1
		l-0.1,7.5l7.5,0.1l0.2-18.8H288L288.2,10z M284.4,21.2l-11.3-0.1l0.1-7.5h3.8V9.8h3.8v3.8h3.8L284.4,21.2z M316.1,20.1l-3.7-0.5
		l0.5-3.7l-3.7-0.5l0.5-3.7l-3.7-0.5l0.5-3.7l-7.4-1l-3.4,26l7.4,1l1.5-11.2l3.7,0.5l-0.5,3.7l3.7,0.5l-0.5,3.7l3.7,0.5l-0.5,3.7
		l7.4,1l3.4-26l-7.4-1L316.1,20.1z M382.3,34.4l1.3-3.5l-3.5-1.3l1.3-3.5L364,19.4l-9.4,24.5l17.5,6.7l1.3-3.5l3.5,1.3l1.3-3.5
		l3.5,1.3l4-10.5L382.3,34.4z M374.8,43.6l-3.5-1.3l-1.3,3.5l-7-2.7l6.7-17.5l7,2.7l-1.3,3.5l3.5,1.3L374.8,43.6z M414.8,41.9
		l-16.6-8.7l-1.7,3.3l-3.3-1.7l-8.7,16.6l3.3,1.7l-1.7,3.3l16.6,8.7l1.7-3.3l3.3,1.7l8.7-16.6l-3.3-1.7L414.8,41.9z M401,60.1
		l-10-5.2l8.7-16.6l10,5.2L401,60.1z M463.4,86.7l2.5-2.8l-2.8-2.5l2.5-2.8l-8.4-7.5l-2.5,2.8l-2.8-2.5l-2.5,2.8l-2.8-2.5l-12.4,14
		l5.6,5l5-5.6l8.4,7.5l-5,5.6l5.6,5l12.4-14L463.4,86.7z M455.6,89.8l-8.4-7.5l5-5.6l2.8,2.5l2.5-2.8l2.8,2.5l-2.5,2.8l2.8,2.5
		L455.6,89.8z M488.7,102.3l-8.4,7.5l-2.5-2.8l2.8-2.5l-2.5-2.8l2.8-2.5l-2.5-2.8l2.8-2.5l-5-5.6l-19.6,17.5l5,5.6l8.4-7.5l2.5,2.8
		l-2.8,2.5l2.5,2.8l-2.8,2.5l2.5,2.8l-2.8,2.5l5,5.6l19.6-17.5L488.7,102.3z M499.6,134.8l2.2,3.1l9.2-6.5l-4.3-6.1l-9.2,6.5
		l-4.3-6.1l9.2-6.5l-4.3-6.1l-9.2,6.5l2.2,3.1l-3.1,2.2l2.2,3.1l-9.2,6.5l4.3,6.1l9.2-6.5l2.2,3.1L499.6,134.8z M522.4,158.2
		l3.3-1.8l-11.1-19.6l-3.3,1.8l3.7,6.5l-19.6,11.1l3.7,6.5l19.6-11.1L522.4,158.2z M536.2,179.5l-10.4,4.4l-4.4-10.4l10.4-4.4
		l-2.9-6.9l-24.2,10.3l2.9,6.9L518,175l4.4,10.4l-10.4,4.4l2.9,6.9l24.2-10.3L536.2,179.5z M524.3,213.5l18-5.4l2.2,7.2l3.6-1.1
		l-6.5-21.6l-3.6,1.1l2.2,7.2l-18,5.4l-2.2-7.2l-3.6,1.1l6.5,21.6l3.6-1.1L524.3,213.5z M553.3,239.1l-11.1,2l-0.7-3.7l3.7-0.7
		l-0.7-3.7l3.7-0.7l-0.7-3.7l3.7-0.7l-1.3-7.4l-25.8,4.7l1.3,7.4l11.1-2l0.7,3.7l-3.7,0.7l0.7,3.7l-3.7,0.7l0.7,3.7l-3.7,0.7
		l1.3,7.4l25.8-4.7L553.3,239.1z M556.1,260.8l-3.7,0.2l-0.2-3.7l-3.7,0.2l-0.2-3.7l-11.2,0.7l0.2,3.7l-3.7,0.2l0.2,3.7l-3.7,0.2
		l1.1,18.7l15-0.9l-0.7-11.2l-3.7,0.2l0.2,3.7l-7.5,0.5l-0.5-7.5l3.7-0.2l-0.2-3.7l11.2-0.7l0.2,3.7l3.7-0.2l0.9,15l3.7-0.2
		L556.1,260.8z M530.8,288.6l3.8,0.1l0.1-3.8l-3.8-0.1L530.8,288.6z"/>
</g>
<g>
	<path class="st0" d="M492.3,446.6l3,2.3l2.3-3l3,2.3l6.9-8.9l-3-2.3l2.3-3l-3-2.3l2.3-3l-14.8-11.4l-4.6,5.9l5.9,4.6l-6.9,8.9
		l-5.9-4.6l-4.6,5.9l14.8,11.5L492.3,446.6z M495.6,430.1l5.9,4.6l-2.3,3l3,2.3l-2.3,3l-3-2.3l-2.3,3l-5.9-4.6L495.6,430.1z
		 M478.3,472.8l-8-7.9l2.7-2.7l2.7,2.6l2.6-2.6l2.7,2.6l2.6-2.7l2.7,2.6l5.3-5.3l-18.7-18.5l-5.3,5.3l8,7.9l-2.6,2.7l-2.7-2.6
		l-2.6,2.7l-2.7-2.6l-2.6,2.7l-2.7-2.6l-5.3,5.3l18.7,18.4L478.3,472.8z M444.1,482.8l2.4,2.9l-2.9,2.4l7.1,8.8l5.8-4.7l-7.1-8.8
		l5.9-4.8l7,8.8l5.8-4.7l-7.1-8.8l-2.9,2.4l-2.4-2.9l-2.9,2.4l-7.1-8.8l-5.8,4.7l7.1,8.8L444.1,482.8z M421.3,512l3.2-2l2,3.2
		l15.7-10.2l-2-3.2l3.2-2L433.3,482l-3.2,2l-2-3.2L412.3,491l2,3.2l-3.2,2L421.3,512z M427,486.1l10.1,15.8l-9.5,6.1l-10.1-15.8
		L427,486.1z M400.5,526.8l-4.9-10.1l3.4-1.6l1.6,3.4l3.4-1.6l1.6,3.4l3.4-1.6l1.6,3.4l6.8-3.3L406,495.2l-6.8,3.3l4.9,10.1
		l-3.4,1.6l-1.6-3.4l-3.4,1.6l-1.6-3.4l-3.4,1.6l-1.6-3.4l-6.8,3.3l11.4,23.6L400.5,526.8z M373.1,514l2.5,7.1l-14.1,5l1.3,3.5
		l14.1-5l2.5,7.1l-14.1,5l1.3,3.5l21.2-7.5l-8.8-24.8l-21.2,7.5l1.3,3.5L373.1,514z M299.4,534l7.5-0.8l-0.4-3.7l7.5-0.8l0.4,3.7
		l3.7-0.4l1.1,11.2l-3.7,0.4l0.4,3.7l-7.5,0.8l-0.4-3.7l-7.5,0.8l0.4,3.7l3.7-0.4l0.4,3.7l14.9-1.6l-0.4-3.7l3.7-0.4l-0.4-3.7
		l3.7-0.4l-1.2-11.2l-3.7,0.4l-0.4-3.7l-3.7,0.4l-0.4-3.7l-14.8,1.6l0.4,3.7l-3.7,0.4L299.4,534z M272.1,549.2h3.8v3.8l11.3,0.1
		v-3.8h3.8v-3.8h3.8l0.2-18.8l-7.5-0.1l-0.1,7.5l-11.3-0.1l0.1-7.5l-7.5-0.1l-0.2,18.8h3.8L272.1,549.2z M275.9,538l11.3,0.1
		l-0.1,7.5h-3.8v3.8h-3.8v-3.8h-3.8L275.9,538z M244.2,539.1l3.7,0.5l-0.5,3.7l3.7,0.5l-0.5,3.7l3.7,0.5l-0.5,3.7l7.4,1l3.4-26
		l-7.4-1l-1.5,11.2l-3.7-0.5l0.5-3.7l-3.7-0.5l0.5-3.7l-3.7-0.5l0.5-3.7l-7.4-1l-3.4,26l7.4,1L244.2,539.1z M178,524.8l-1.3,3.5
		l3.5,1.3l-1.3,3.5l17.4,6.7l9.4-24.5l-17.5-6.7l-1.3,3.5l-3.5-1.3l-1.3,3.5l-3.5-1.3l-4,10.5L178,524.8z M185.5,515.6l3.5,1.3
		l1.3-3.5l7,2.7l-6.7,17.5l-7-2.7l1.3-3.5l-3.5-1.3L185.5,515.6z M145.5,517.3l16.6,8.7l1.7-3.3l3.3,1.7l8.7-16.6l-3.3-1.7l1.7-3.3
		l-16.6-8.7l-1.7,3.3l-3.3-1.7l-8.7,16.6l3.3,1.7L145.5,517.3z M159.3,499.1l10,5.2l-8.7,16.6l-10-5.2L159.3,499.1z M96.9,472.5
		l-2.5,2.8l2.8,2.5l-2.5,2.8l8.4,7.5l2.5-2.8l2.8,2.5l2.5-2.8l2.8,2.5l12.4-14l-5.6-5l-5,5.6l-8.4-7.5l5-5.6l-5.6-5l-12.4,14
		L96.9,472.5z M104.7,469.4l8.4,7.5l-5,5.6l-2.8-2.5l-2.5,2.8l-2.8-2.5l2.5-2.8l-2.8-2.5L104.7,469.4z M71.6,456.9l8.4-7.5l2.5,2.8
		l-2.8,2.5l2.5,2.8l-2.8,2.5l2.5,2.8l-2.8,2.5l5,5.6l19.6-17.5l-5-5.6l-8.4,7.5l-2.5-2.8l2.8-2.5l-2.5-2.8l2.8-2.5l-2.5-2.8l2.8-2.5
		l-5-5.6l-19.6,17.5L71.6,456.9z M60.7,424.4l-2.2-3.1l-9.2,6.5l4.3,6.1l9.2-6.5l4.3,6.1l-9.2,6.5l4.3,6.1l9.2-6.5l-2.2-3.1l3.1-2.2
		l-2.2-3.1l9.2-6.5l-4.3-6.1l-9.2,6.5l-2.2-3.1L60.7,424.4z M37.9,401l-3.3,1.8l11.1,19.6l3.3-1.8l-3.7-6.5L64.9,403l-3.7-6.5
		l-19.6,11.1L37.9,401z M24.1,379.7l10.4-4.4l4.4,10.4l-10.4,4.4l2.9,6.9l24.2-10.3l-2.9-6.9l-10.4,4.4l-4.4-10.4l10.4-4.4l-2.9-6.9
		l-24.2,10.3L24.1,379.7z M36,345.7l-18,5.4l-2.2-7.2l-3.6,1.1l6.5,21.6l3.6-1.1l-2.2-7.2l18-5.4l2.2,7.2l3.6-1.1l-6.5-21.6
		l-3.6,1.1L36,345.7z M7,320.1l11.1-2l0.7,3.7l-3.7,0.7l0.7,3.7l-3.7,0.7l0.7,3.7l-3.7,0.7l1.3,7.4l25.8-4.7l-1.3-7.4l-11.1,2
		l-0.7-3.7l3.7-0.7l-0.7-3.7l3.7-0.7l-0.7-3.7l3.7-0.7l-1.3-7.4l-25.8,4.7L7,320.1z M4.2,298.4l3.7-0.2l0.2,3.7l3.7-0.2l0.2,3.7
		l11.2-0.7L23,301l3.7-0.2l-0.2-3.7l3.7-0.2l-1.1-18.7l-15,0.9l0.7,11.2l3.7-0.2l-0.2-3.7l7.5-0.5l0.5,7.5l-3.7,0.2l0.2,3.7
		L11.6,298l-0.2-3.7l-3.7,0.2l-0.9-15l-3.7,0.2L4.2,298.4z M29.5,270.6l-3.8-0.1l-0.1,3.8l3.8,0.1L29.5,270.6z"/>
</g>
</svg>
